<svg width="31" height="31" viewBox="0 0 21 19" fill="none" xmlns="http://www.w3.org/2000/svg">
<path d="M2.20091 16.8403L2.10285 17.3306H2.10285L2.20091 16.8403ZM18.7991 16.8403L18.8972 17.3306L18.7991 16.8403ZM18.913 2.3029L19.0178 1.814L18.913 2.3029ZM2.08696 2.3029L2.19172 2.7918H2.19172L2.08696 2.3029ZM8.5 6.50011L8.75725 6.07136C8.60278 5.97868 8.4104 5.97625 8.25365 6.06501C8.0969 6.15376 8 6.31997 8 6.50011H8.5ZM8.5 12.5001H8C8 12.6802 8.0969 12.8465 8.25365 12.9352C8.41041 13.024 8.60278 13.0215 8.75725 12.9289L8.5 12.5001ZM13.5 9.50011L13.7572 9.92885C13.9079 9.83849 14 9.67574 14 9.50011C14 9.32448 13.9079 9.16172 13.7572 9.07136L13.5 9.50011ZM0 4.26595V14.7655H1V4.26595H0ZM21 14.7655V4.26595H20V14.7655H21ZM2.10285 17.3306C7.64606 18.4392 13.3539 18.4392 18.8972 17.3306L18.701 16.35C13.2873 17.4327 7.71271 17.4327 2.29897 16.35L2.10285 17.3306ZM19.0178 1.814C13.403 0.610828 7.597 0.610828 1.98219 1.814L2.19172 2.7918C7.66841 1.61823 13.3316 1.61823 18.8083 2.7918L19.0178 1.814ZM21 4.26595C21 3.08351 20.174 2.06176 19.0178 1.814L18.8083 2.7918C19.5034 2.94076 20 3.55505 20 4.26595H21ZM20 14.7655C20 15.5358 19.4563 16.1989 18.701 16.35L18.8972 17.3306C20.1199 17.086 21 16.0124 21 14.7655H20ZM0 14.7655C0 16.0124 0.880133 17.086 2.10285 17.3306L2.29897 16.35C1.54367 16.1989 1 15.5358 1 14.7655H0ZM1 4.26595C1 3.55505 1.49661 2.94076 2.19172 2.7918L1.98219 1.814C0.826006 2.06175 0 3.08351 0 4.26595H1ZM8 6.50011V12.5001H9V6.50011H8ZM8.75725 12.9289L13.7572 9.92885L13.2428 9.07136L8.24275 12.0714L8.75725 12.9289ZM13.7572 9.07136L8.75725 6.07136L8.24275 6.92885L13.2428 9.92885L13.7572 9.07136Z" fill="#828282"/>
</svg>
